<svg id="Group_8681" data-name="Group 8681" xmlns="http://www.w3.org/2000/svg" xmlns:xlink="http://www.w3.org/1999/xlink" width="16.535" height="15.527" viewBox="0 0 16.535 15.527">
  <defs>
    <clipPath id="clip-path">
      <rect id="Rectangle_398" data-name="Rectangle 398" width="16.535" height="15.527" fill="#fff" stroke="#fff" stroke-width="0.5"/>
    </clipPath>
  </defs>
  <g id="Group_8680" data-name="Group 8680" clip-path="url(#clip-path)">
    <path id="Path_23754" data-name="Path 23754" d="M15.412,233.475H1.123A1.114,1.114,0,0,1,0,232.373V228.8a.521.521,0,0,1,1.041,0v3.569a.075.075,0,0,0,.082.061H15.412a.075.075,0,0,0,.082-.061V228.8a.521.521,0,0,1,1.041,0v3.569a1.114,1.114,0,0,1-1.123,1.1" transform="translate(0 -217.949)" fill="#fff" stroke="#fff" stroke-width="0.5"/>
    <path id="Path_23755" data-name="Path 23755" d="M171.652,10.6a.521.521,0,0,1-.521-.521V.521a.521.521,0,1,1,1.041,0v9.56a.521.521,0,0,1-.521.521" transform="translate(-163.384)" fill="#fff" stroke="#fff" stroke-width="0.5"/>
    <path id="Path_23756" data-name="Path 23756" d="M77.681,141.084a.521.521,0,0,1-.368-.152l-4.456-4.456a.521.521,0,1,1,.736-.736l4.088,4.088,4.088-4.088a.521.521,0,1,1,.736.736l-4.456,4.456a.521.521,0,0,1-.368.152" transform="translate(-69.413 -129.449)" fill="#fff" stroke="#fff" stroke-width="0.5"/>
  </g>
</svg>
