<svg xmlns="http://www.w3.org/2000/svg" width="39.576" height="41.046" viewBox="0 0 39.576 41.046">
  <g id="Group_8605" data-name="Group 8605" transform="translate(-1630.342 -2542.72)">
    <path id="Path_23681" data-name="Path 23681" d="M475.4,191.421V220.93a3.07,3.07,0,0,1-3.07,3.07H447.495a3.069,3.069,0,0,1-3.07-3.07V186.785a3.069,3.069,0,0,1,3.07-3.07h20.2Z" transform="translate(1194.139 2359.385)" fill="#eaf4fe"/>
    <path id="Path_23682" data-name="Path 23682" d="M1065.195,191.421h-4.636a3.069,3.069,0,0,1-3.07-3.07v-4.636Z" transform="translate(604.343 2359.385)" fill="#eaf4fe"/>
    <path id="Path_23683" data-name="Path 23683" d="M466.107,181.633c0-.011-.01-.022-.015-.033v0a.245.245,0,0,0-.017-.028l-.005-.008a.235.235,0,0,0-.018-.025h0a.292.292,0,0,0-.025-.028l-7.706-7.706a.291.291,0,0,0-.028-.025h0l-.025-.018-.008-.005-.028-.017h0l-.033-.015a.379.379,0,0,0-.146-.029h-20.2a3.454,3.454,0,0,0-3.45,3.45v34.145a3.454,3.454,0,0,0,3.45,3.45h24.835a3.454,3.454,0,0,0,3.45-3.45V181.778a.378.378,0,0,0-.029-.145m-.732,29.654a2.692,2.692,0,0,1-2.689,2.689H437.851a2.692,2.692,0,0,1-2.689-2.689V177.142a2.692,2.692,0,0,1,2.689-2.689h20.041l.538.538,6.407,6.407.538.538Z" transform="translate(1203.782 2369.028)" fill="#225368"/>
    <path id="Path_23684" data-name="Path 23684" d="M1055.55,182.158h-4.636a3.454,3.454,0,0,1-3.45-3.45v-4.636a.381.381,0,0,1,.65-.269l7.706,7.706a.38.38,0,0,1-.269.649m-7.325-7.168v3.718a2.692,2.692,0,0,0,2.689,2.689h3.718Z" transform="translate(613.988 2369.029)" fill="#225368"/>
    <path id="Path_23685" data-name="Path 23685" d="M536.958,399.091v-5.154h2.185a1.464,1.464,0,0,1,.657.149,1.7,1.7,0,0,1,.519.392,1.854,1.854,0,0,1,.341.552,1.662,1.662,0,0,1,.123.621,1.791,1.791,0,0,1-.116.635,1.765,1.765,0,0,1-.327.548,1.608,1.608,0,0,1-.508.385,1.47,1.47,0,0,1-.653.145h-1.22v1.728Zm1-2.606h1.162a.574.574,0,0,0,.461-.225.932.932,0,0,0,.185-.61,1.006,1.006,0,0,0-.058-.352.857.857,0,0,0-.153-.265.606.606,0,0,0-.221-.163.648.648,0,0,0-.258-.054H537.96Z" transform="translate(1105.118 2157.142)" fill="#225368"/>
    <path id="Path_23686" data-name="Path 23686" d="M656.115,399.091v-5.154h1.873a2.8,2.8,0,0,1,1.107.2,2.226,2.226,0,0,1,1.274,1.368,3.076,3.076,0,0,1,.16,1,3.017,3.017,0,0,1-.178,1.064,2.271,2.271,0,0,1-.512.813,2.305,2.305,0,0,1-.8.523,2.831,2.831,0,0,1-1.049.185Zm3.4-2.584a2.193,2.193,0,0,0-.1-.682,1.528,1.528,0,0,0-.3-.537,1.327,1.327,0,0,0-.483-.348,1.63,1.63,0,0,0-.65-.123h-.871v3.4h.871a1.569,1.569,0,0,0,.657-.131,1.344,1.344,0,0,0,.479-.359,1.6,1.6,0,0,0,.294-.541,2.169,2.169,0,0,0,.1-.675" transform="translate(990.483 2157.142)" fill="#225368"/>
    <path id="Path_23687" data-name="Path 23687" d="M793.062,399.091v-5.154h3.463v.878h-2.461v1.328h2.047v.813h-2.047v2.134Z" transform="translate(858.734 2157.143)" fill="#225368"/>
    <path id="Path_23688" data-name="Path 23688" d="M244.26,695.83a8.221,8.221,0,1,1-8.221-8.221,8.281,8.281,0,0,1,8.221,8.221" transform="translate(1402.525 1874.616)" fill="#c4ff8a"/>
    <path id="Path_23689" data-name="Path 23689" d="M227.817,695.83a8.221,8.221,0,1,0,8.221-8.221,8.221,8.221,0,0,0-8.221,8.221" transform="translate(1402.525 1874.616)" fill="none"/>
    <path id="Path_23690" data-name="Path 23690" d="M-6772,2799.833l1.888,1.887,4.374-4.374" transform="translate(8407.389 -228.877)" fill="none" stroke="#225368" stroke-linecap="round" stroke-width="1.3"/>
  </g>
</svg>
