<svg xmlns="http://www.w3.org/2000/svg" width="33.453" height="33.422" viewBox="0 0 33.453 33.422">
  <path id="Path_23750" data-name="Path 23750" d="M33.454,16.391c0-.05,0-.1,0-.151a.386.386,0,0,1-.148-.329c.044-.625-.079-1.242-.079-1.865h0c-.2-.782-.426-1.558-.605-2.345a2.989,2.989,0,0,1-.376-1.136h0c.07.032.08.132.165.147a6.334,6.334,0,0,0-.575-1.347A14.1,14.1,0,0,0,30.148,6.7a7.915,7.915,0,0,0-1.379-1.59h0a1.468,1.468,0,0,0-.378-.371,2.053,2.053,0,0,0-.679-.614h0a.088.088,0,0,0-.077-.075.586.586,0,0,0-.072-.086A16.868,16.868,0,0,0,19.04.169a17.1,17.1,0,0,0-5.2.063A16.759,16.759,0,0,0,6.236,3.577a4.3,4.3,0,0,0-.872.775h0a.551.551,0,0,0-.244.171A16.835,16.835,0,0,0,3.086,6.806a3,3,0,0,0-.512.786l.014.1a.181.181,0,0,0,.2-.06,1.852,1.852,0,0,1-.348.67,1.35,1.35,0,0,0-.306.6c-.21.394-.651.675-.585,1.2,0,.026-.039.062-.065.088a.933.933,0,0,0-.182.326,8.757,8.757,0,0,0-.5,1.319c-.1.436-.293.851-.365,1.3A7.472,7.472,0,0,0,.161,14.7a.4.4,0,0,1-.148.332c.011.136.112.262.068.4a4.635,4.635,0,0,0-.073,1.185c-.036.689.077,1.37.08,2.056a.448.448,0,0,0,.151.367.326.326,0,0,0-.033.106,17.166,17.166,0,0,0,.487,2.391c.066.146.273.245.151.454.076.042.2.069.2.153-.008.294.235.531.177.831.17.073.152.223.151.364h0l-.031.046.033.045c0,.025,0,.05,0,.075.052.074.049.185.151.227a1.785,1.785,0,0,0,.359.85A5.935,5.935,0,0,1,2.508,25.7h0l-.084,0a.126.126,0,0,0,0,.156A15.6,15.6,0,0,0,4.918,28.91a6.9,6.9,0,0,0,1.141.972h0a.694.694,0,0,0,.214.209,17.418,17.418,0,0,0,3.661,2.184,4.1,4.1,0,0,0,.884.325,11.207,11.207,0,0,0,2.124.656q.386.092.779.152c.254.039.289,0,.308-.24,0-.038,0-.076,0-.113.007-1.032.019-2.064.018-3.1,0-1.7-.012-3.4-.018-5.1,0-.9,0-1.79-.009-2.685,0-.386-.014-.393-.409-.406-.1,0-.2,0-.3,0-1.034,0-2.068,0-3.1,0-.425,0-.447-.031-.461-.447-.044-1.336-.032-2.672-.032-4.008a2.084,2.084,0,0,1,.014-.264.2.2,0,0,1,.2-.191c.113-.008.227-.011.34-.011,1.1,0,2.194,0,3.29,0,.442,0,.458-.017.458-.438q0-1.664,0-3.328a8.418,8.418,0,0,1,.3-2.316A5.409,5.409,0,0,1,16.37,7.716a6.557,6.557,0,0,1,3.806-1.17,17.28,17.28,0,0,1,2.19.091,13.257,13.257,0,0,1,1.535.209c.306.07.336.1.337.4q.009,1.7.008,3.4c0,.408-.026.431-.427.437-.618.008-1.235.011-1.853.014a3.294,3.294,0,0,0-.931.144,2.135,2.135,0,0,0-1.507,1.463,2.8,2.8,0,0,0-.147.854c0,.958,0,1.916,0,2.874,0,.389.012.392.413.393,1.223,0,2.446,0,3.669.01a1.019,1.019,0,0,1,.589.09q-.328,2.184-.657,4.368c-.066.434-.087.455-.526.458-1.007.006-2.015,0-3.023.008-.457,0-.457,0-.462.46,0,.05,0,.1,0,.151q0,2.059,0,4.118,0,3.287.011,6.574c0,.367.03.387.392.333l.074-.013a16.919,16.919,0,0,0,5.254-1.943,6.089,6.089,0,0,0,1.012-.654.359.359,0,0,0,.234-.155,7.151,7.151,0,0,0,1.361-1.059,1.178,1.178,0,0,0,.447-.392,1.328,1.328,0,0,0,.385-.366,14.575,14.575,0,0,0,2.456-3,1.711,1.711,0,0,0,.271-.493l-.1-.007a3.186,3.186,0,0,0,.269-.569c.156-.4.428-.731.56-1.133a5.073,5.073,0,0,1,.306-.719.259.259,0,0,0,.029-.209.184.184,0,0,0-.03-.016h0c.052-.3.256-.542.271-.865a.508.508,0,0,1,.258-.423c0-.119-.084-.224-.013-.361A1.475,1.475,0,0,0,33,20.3a.264.264,0,0,1,.151-.277.415.415,0,0,1-.033-.392,1.352,1.352,0,0,0,.11-.656.279.279,0,0,1,.149-.314c0-.076,0-.151,0-.227a.1.1,0,0,1,0-.152.7.7,0,0,1-.044-.18q.023-.811.058-1.622c0-.031.04-.06.061-.09M14.463,9.582c0,.006,0,.011,0,.017l-.014,0A.185.185,0,0,1,14.463,9.582ZM13.58,2.195a.072.072,0,0,1,0-.049.438.438,0,0,0,0,.049M9.4,20.239l0,.008,0-.069c0,.02.006.041.008.061M28,5.957h-.007l0,0L28,5.957m-3.075,6.694a.15.15,0,0,0-.012.083c-.04-.012-.083-.025-.127-.04a.95.95,0,0,0,.139-.042M25.158,20a.062.062,0,0,1-.038.061c.012-.02.024-.041.038-.061m-4.49-4.889.012-.006v0l-.013.007v0m-.539.64.006,0a.277.277,0,0,1-.039,0,.182.182,0,0,1,.034,0M11.776,1.38V1.357c0,.007,0,.015,0,.023h0M11.093,27.2c.042.044.035.084-.012.13a.857.857,0,0,0,.012-.13m.02-2.739a.3.3,0,0,0,.009.047.383.383,0,0,0-.059-.013.379.379,0,0,0,.05-.034M13.555,29.1l0-.012.008.011h0M25.261,3.383l.04.035a.141.141,0,0,1-.04-.035M21.41,1.3l.091.023A.072.072,0,0,1,21.41,1.3m-5.353,6,.008.007h-.014l.006-.007m4.913,9.01.054,0L21,16.337a.275.275,0,0,1-.027-.021M18.017,6.324l0,0h0l0,0m6.9,24.616.008,0-.008,0M14.766,9.128v.01l0-.007,0,0m.227-.378h0s0,0,0-.007l.013.007h-.015M22.71,22.066a.106.106,0,0,1,.014-.015s0,.01,0,.015H22.71M31.64,9.358a.106.106,0,0,0,.024-.015l0,0a.431.431,0,0,1,.012.067.4.4,0,0,0-.037-.048M1.487,22.206c-.027-.063-.057-.126-.086-.189a.155.155,0,0,1,.086.189M5.85,29.557a.09.09,0,0,0,0,.016.152.152,0,0,1-.008-.018H5.85" transform="translate(-0.001 0)" fill="#0071fe"/>
</svg>
