<svg xmlns="http://www.w3.org/2000/svg" width="23.217" height="16.068" viewBox="0 0 23.217 16.068">
  <g id="Group_8685" data-name="Group 8685" transform="translate(-694.123 -1976.596)">
    <path id="Path_23758" data-name="Path 23758" d="M194.914,23.023H175.482V10.707a.881.881,0,0,1,.881-.881h17.669a.881.881,0,0,1,.881.881Z" transform="translate(520.533 1966.92)" fill="#fff" stroke="#fff" stroke-width="0.3"/>
    <path id="Path_23759" data-name="Path 23759" d="M194.914,23.023H175.482V10.707a.881.881,0,0,1,.881-.881h17.669a.881.881,0,0,1,.881.881Z" transform="translate(520.533 1966.92)" fill="none"/>
    <path id="Path_23760" data-name="Path 23760" d="M274.992,108.519h-17.47a.168.168,0,0,1-.168-.168v-11.2a.168.168,0,0,1,.168-.168h17.47a.168.168,0,0,1,.168.168v11.2a.168.168,0,0,1-.168.168" transform="translate(439.474 1880.627)" fill="#a8de31"/>
    <path id="Path_23761" data-name="Path 23761" d="M13.448,1385.108h0a.383.383,0,0,1-.383.383h-3.2a.383.383,0,0,1-.383-.383.115.115,0,0,0-.115-.115H0v.066a1.048,1.048,0,0,0,1.048,1.048H21.869a1.048,1.048,0,0,0,1.048-1.048v-.066H13.562a.115.115,0,0,0-.115.115" transform="translate(694.273 606.407)" fill="#fff" stroke="#fff" stroke-width="0.3"/>
    <path id="Path_23762" data-name="Path 23762" d="M949.776,472.981l-1.5-1.5,1.5-.949-4.132-1.037,1.037,4.132.949-1.5,1.5,1.5Z" transform="translate(-241.976 1511.817)" fill="#fff"/>
  </g>
</svg>
