<svg xmlns="http://www.w3.org/2000/svg" xmlns:xlink="http://www.w3.org/1999/xlink" width="25.162" height="21.979" viewBox="0 0 25.162 21.979">
  <defs>
    <clipPath id="clip-path">
      <rect id="Rectangle_348" data-name="Rectangle 348" width="25.162" height="21.978" fill="#46afde"/>
    </clipPath>
  </defs>
  <g id="Group_8474" data-name="Group 8474" transform="translate(0)">
    <g id="Group_8473" data-name="Group 8473" transform="translate(0)" clip-path="url(#clip-path)">
      <path id="Path_23570" data-name="Path 23570" d="M0,18.821a10.9,10.9,0,0,0,7.389-2.163,5.73,5.73,0,0,1-4.837-3.676,7.668,7.668,0,0,0,1.984-.194C2.239,11.781.751,10.267.69,7.651c.723.064,1.275.535,2.144.473C.717,6.056.075,3.81,1.4,1.071A15.429,15.429,0,0,0,9.342,6.135c.171.044.342.091.513.131a10.47,10.47,0,0,0,2.266.528c.85-.106,0-1.081.216-2.347a5.183,5.183,0,0,1,8.221-3.422,2.316,2.316,0,0,0,2.6.256c.484-.215.973-.42,1.546-.667-.132,1.131-.993,1.744-1.684,2.585a3.84,3.84,0,0,0,2.142-.276,3.591,3.591,0,0,1-1.4,1.716,2.014,2.014,0,0,0-.821,1.689C22.582,17.689,9.672,26.481.841,19.484c-.856-.678-.022,0-.841-.662" transform="translate(0 0)" fill="#46afde"/>
    </g>
  </g>
</svg>
