<svg xmlns="http://www.w3.org/2000/svg" width="33.816" height="33.702" viewBox="0 0 33.816 33.702">
  <path id="Path_23751" data-name="Path 23751" d="M399.454,379.744a16.5,16.5,0,0,0-1.275-4.413,8.476,8.476,0,0,0-.825-1.565,6.031,6.031,0,0,0-.9-1.348.831.831,0,0,0-.193-.32,17.359,17.359,0,0,0-1.417-1.665,5.588,5.588,0,0,0-.97-.889,6.725,6.725,0,0,0-1.523-1.218h0a1.38,1.38,0,0,0-.137-.126,14.793,14.793,0,0,0-1.916-1.128,7.01,7.01,0,0,0-1.486-.633,9.973,9.973,0,0,0-2.5-.757h0a.413.413,0,0,0-.21-.075,17.1,17.1,0,0,0-3.069-.348,15.929,15.929,0,0,0-2.856.193,16.592,16.592,0,0,0-6.075,2.164,4.766,4.766,0,0,0-.842.564.523.523,0,0,0-.23.124,16.826,16.826,0,0,0-2.738,2.372,5.981,5.981,0,0,0-.816.985,4.282,4.282,0,0,0-.6.764,11.241,11.241,0,0,0-1.052,1.725c-.118.068-.153.2-.212.3a12.3,12.3,0,0,0-.528,1.21,16.677,16.677,0,0,0-1.12,8.766,15.238,15.238,0,0,0,1,3.785,9.755,9.755,0,0,0,.864,1.839.593.593,0,0,0,.223.386h0a3.711,3.711,0,0,0,.52.828,10.072,10.072,0,0,0,1.512,1.978h0l.074.078a6.607,6.607,0,0,0,1.3,1.289h0a1.057,1.057,0,0,0,.263.267,16.877,16.877,0,0,0,4.621,2.807,7.742,7.742,0,0,0,1.389.469.434.434,0,0,0,.236.108,15.728,15.728,0,0,0,2.693.559,16.756,16.756,0,0,0,2.147.13,12.955,12.955,0,0,0,2.107-.145,8.8,8.8,0,0,0,1.7-.339h0a8.011,8.011,0,0,0,1.813-.531l-.021-.029,0,0,.017.031a12.075,12.075,0,0,0,2.789-1.3,5.251,5.251,0,0,0,1.118-.681,6.425,6.425,0,0,0,1.306-1.058.091.091,0,0,0,.079-.072.093.093,0,0,0,.078-.072,1.626,1.626,0,0,0,.6-.539,9.219,9.219,0,0,0,1.267-1.324,10.027,10.027,0,0,0,1.161-1.605.548.548,0,0,0,.226-.31.483.483,0,0,0,.163-.2,16.479,16.479,0,0,0,2.078-5.321,16.7,16.7,0,0,0,.163-5.71m-2.638,11.389H396.8l.016-.02h0Zm-.542-17.854a.07.07,0,0,1-.019-.032l.019.032m-29.421,4.367h0ZM393.334,381l-.016,0,.013-.013c0,.006,0,.011,0,.017m-24.717-5.142a.116.116,0,0,1-.024.05c.008-.016.016-.033.024-.05m3.756,14.008c-.113-.066-.248-.119-.281-.293a.694.694,0,0,1,.375-.045,10.041,10.041,0,0,0,2.067-.148,9.106,9.106,0,0,0,3.51-1.417c.125-.085.284-.152.353-.352l-.494-.089a6.47,6.47,0,0,1-1.587-.585,5.4,5.4,0,0,1-1.448-1.417.087.087,0,0,0-.066-.084h0a.131.131,0,0,0-.086-.143,2.851,2.851,0,0,1-.322-.68c-.059-.181-.025-.233.161-.237.289-.007.579,0,.868,0a1.4,1.4,0,0,0,.611-.12.655.655,0,0,0-.346-.182,4.689,4.689,0,0,1-2.548-2.294,3.923,3.923,0,0,1-.465-1.771c0-.253.059-.3.3-.215a9.55,9.55,0,0,0,1.009.311,1.035,1.035,0,0,0,.47.017c-.032-.152-.14-.206-.219-.281a5.388,5.388,0,0,1-.628-.7,4.558,4.558,0,0,1-.307-5.042c.143.04.235.159.358.231a1.284,1.284,0,0,0,.277.352,14.226,14.226,0,0,0,1.923,1.677.227.227,0,0,0,.223.156h0a.085.085,0,0,0,.085.064,4.475,4.475,0,0,0,.808.469,5.841,5.841,0,0,0,1.283.692,9.013,9.013,0,0,0,2.275.746h0a.234.234,0,0,0,.062.042,11.564,11.564,0,0,0,2.049.307c.211.018.254-.06.222-.324a4.677,4.677,0,0,1,5.428-5.281,4.621,4.621,0,0,1,2.293,1.083.689.689,0,0,0,.708.231,4.32,4.32,0,0,0,1.6-.514,1.7,1.7,0,0,0,.513-.2c.208-.092.208-.092.212.172a.293.293,0,0,0-.063.229,10.363,10.363,0,0,1-1.089,1.354.593.593,0,0,1-.2.2.314.314,0,0,0-.05.055.161.161,0,0,0-.05.018c-.049.029-.118.058-.1.132s.094.063.15.053a.2.2,0,0,0,.052-.02c.008,0,.015.006.024.007a.356.356,0,0,0,.1-.015l.11-.032.018-.005c.036-.01.073-.02.109-.032a1.456,1.456,0,0,1,.28-.083,2.215,2.215,0,0,0,.342-.1c.327,0,.6-.248.961-.2a1.01,1.01,0,0,1-.275.537,7.951,7.951,0,0,1-1.41,1.415.8.8,0,0,0-.341.742,11.711,11.711,0,0,1-.341,3.107,13.572,13.572,0,0,1-2.139,4.759,13.125,13.125,0,0,1-3.217,3.214,7.7,7.7,0,0,0-.968.648,5.487,5.487,0,0,0-.776.384,13.76,13.76,0,0,1-3.341,1.039,14.057,14.057,0,0,1-2.553.219,12.779,12.779,0,0,1-2.177-.2,12.947,12.947,0,0,1-4.309-1.555M382.441,377.2l-.007,0s.006,0,.007,0h0v.006m10.074,1.166a.075.075,0,0,1,.007-.029c0,.009,0,.019-.007.029m-.156,3.4a.234.234,0,0,1,.029-.153c-.01.051-.02.1-.029.153m-8.59,9.412c0-.01.01-.018.014-.029.011-.033.064-.04.1-.024l-.118.053m2.757-.475v.026l0,.006h0a.046.046,0,0,1,0-.032m6.353-16.767,0,0s0,0,0-.005l0,.008h0m-10.655,4.219-.012.02s0-.008,0-.012l.011-.008m-7.212-3.229h0m18.616-.7s0,.006,0,.01l-.012-.008h.012m-4.079,12.418a.02.02,0,0,1,0,0l0,0h0m-5.888,6.5s0,0,0-.009l.006.006,0,0M382.44,377.19a.012.012,0,0,0,0-.007l0,0v.005m-.968-.432h0m-.016-.015,0,0h0l0,0m-9.182-2.366a.1.1,0,0,1-.062-.122l.085-.049a1.117,1.117,0,0,0-.023.171m-1.614,6.285a.255.255,0,0,0-.039-.028.623.623,0,0,0,.056-.031.445.445,0,0,0-.016.059m-.537,7.158s.009,0,.014.005a.085.085,0,0,1,.036.088.322.322,0,0,0-.05-.093m24.833-14.2a.111.111,0,0,1,.062-.012l-.062.012m-11.17-6.129.029.05a.558.558,0,0,0-.058-.019.241.241,0,0,0,.028-.031m-7.9,6.054c0,.01,0,.018,0,.028l-.021-.013a.163.163,0,0,0,.017-.015m-6.771,1.027a.093.093,0,0,1-.057.006l.057-.006m-.855,1.764a.089.089,0,0,1-.073.07l.073-.07m-.328-.389h0m-.595,3.619a.1.1,0,0,1-.018.058c.006-.019.012-.038.018-.058m3.757,8.594a.151.151,0,0,1,.057-.028c-.019.009-.038.017-.057.028m4.774,4.165-.021-.034a.074.074,0,0,1,.021.034m14.036,3.92.015.008c-.006.007-.01.014-.016.021,0-.011,0-.02,0-.03m7.8-18.581c.013-.009.022-.019.033-.028a.1.1,0,0,0,.015.04.3.3,0,0,1-.048-.012m-29.334,8.331,0,.018c-.014-.011-.026-.024-.04-.036a.235.235,0,0,1,.043.018m9.436,10.69c-.007.1,0,.142.051.155a.073.073,0,0,1-.085-.044c-.021-.044-.015-.076.034-.111m19.809-20.3c-.009,0-.013-.02-.017-.027a.107.107,0,0,1,0-.025c.008.018.016.037.025.055l-.013,0m-20.256-8.368h0M369.242,390.4c.061.1.126.2.187.3-.011,0-.02-.007-.031-.008-.169-.025-.212-.126-.155-.291m14.54,7.9c-.038,0-.077.006-.116.01a.118.118,0,0,1,.116-.01m10.813-5.559-.011.006.011-.006m-1.369,1.975a.182.182,0,0,1,.091.021l0,0a.652.652,0,0,0-.089-.022M376.66,367.346a1.187,1.187,0,0,0,.1-.1.182.182,0,0,1-.1.1m-7.461,5.17-.019.006c.006-.007.012-.015.018-.021s0,.011,0,.016m23.227-4.025-.012,0,.007-.009,0,.012m-4.29-2.174c-.007-.007-.015-.013-.022-.021h.024c0,.007,0,.013,0,.02m-17.347,27.519.013,0,0,.009-.008-.011m-2.046-2.508s0,.007,0,.01l-.011,0,.008-.006" transform="translate(-365.81 -365.252)" fill="#179cf8"/>
</svg>
