<svg xmlns="http://www.w3.org/2000/svg" width="22.597" height="22.65" viewBox="0 0 22.597 22.65">
  <g id="Group_9099" data-name="Group 9099" transform="translate(-1777.701 -6288.438)">
    <path id="Path_23568" data-name="Path 23568" d="M21.222,6.325a10.332,10.332,0,0,0-2.376-3.3A11.078,11.078,0,0,0,15.336.81a11.747,11.747,0,0,0-8.575,0A11.078,11.078,0,0,0,3.25,3.026a10.335,10.335,0,0,0-2.376,3.3A9.777,9.777,0,0,0,0,10.378a9.99,9.99,0,0,0,2.6,6.693l-.9,4.908,4.8-2.139a11.738,11.738,0,0,0,8.835.107,11.076,11.076,0,0,0,3.51-2.215,10.332,10.332,0,0,0,2.376-3.3,9.831,9.831,0,0,0,0-8.107M11.048,19.537a10.324,10.324,0,0,1-4.3-.92L6.5,18.5,3.321,19.922l.595-3.237L3.7,16.46a8.8,8.8,0,0,1-2.481-6.082c0-5.05,4.409-9.159,9.829-9.159s9.829,4.109,9.829,9.159-4.409,9.159-9.829,9.159" transform="translate(1777.951 6288.688)" fill="#46afde" stroke="#46afde" stroke-width="0.5"/>
    <path id="Path_23569" data-name="Path 23569" d="M72.2,69.8c-.472-.231-.812-.379-1.059-.472-.157-.057-.515-.217-.642-.115-.4.327-.819,1.241-1.268,1.414a6.323,6.323,0,0,1-2.961-1.769,10.308,10.308,0,0,1-1.17-1.577c-.024-.271.458-.63.565-.834.561-.633.135-1.023.062-1.289-.124-.273-.344-.753-.532-1.156-.16-.263-.2-.646-.49-.794-1.23-.633-1.931.631-2.22,1.29-1.737,4.186,8.717,12.165,10.844,6.673.108-.48.066-.656-.1-.877A9.161,9.161,0,0,0,72.2,69.8" transform="translate(1721.27 6231.334)" fill="#46afde"/>
  </g>
</svg>
