<svg xmlns="http://www.w3.org/2000/svg" width="33.801" height="33.637" viewBox="0 0 33.801 33.637">
  <g id="Group_8677" data-name="Group 8677" transform="translate(0)">
    <path id="Path_23752" data-name="Path 23752" d="M216.037,197.894a.483.483,0,0,0-.111.456c.006.081.007.162.01.243-.006-.028-.011-.056-.018-.083a5.156,5.156,0,0,1-.12-1.191c0-.132.05-.28-.074-.392l-.008-.01a.294.294,0,0,0,.048-.006.813.813,0,0,0,.044-.605,2.6,2.6,0,0,0-.034-.3A16.924,16.924,0,0,0,189.559,185.8a4.652,4.652,0,0,0-.857.675,2.309,2.309,0,0,0-.532.417,16.654,16.654,0,0,0-5.186,8.175,16.294,16.294,0,0,0-.537,6.134,8.29,8.29,0,0,0,.278,1.708,1.283,1.283,0,0,0,.06.409,16.773,16.773,0,0,0,7.406,10.451,8.485,8.485,0,0,0,1.621.879c.087.05.17.106.26.148a17,17,0,0,0,12.923.593,11.583,11.583,0,0,0,2.263-1.036c.08-.035.164-.063.24-.105a16.85,16.85,0,0,0,8.651-14.213,9.372,9.372,0,0,0-.111-2.14m-8.408,16.059h0m-24.712-17.075c-.007.055-.016.109-.023.164a.347.347,0,0,1,.023-.164m20.875,13.4a.156.156,0,0,1,.011-.146c0,.042-.008.09-.011.146m6.56-11.606h0l0,0v0h0m-23.124,3.812a.06.06,0,0,1,0-.046l.009-.013a.574.574,0,0,0-.009.059m-.282-3.573v.007l-.009,0,.008,0m1.713,11.066c0-.034.012-.071.022-.114.061-.257.13-.513.2-.768.367-1.336.732-2.673,1.106-4.007a.728.728,0,0,0-.069-.611,7.783,7.783,0,0,1-.481-1.026,10.75,10.75,0,0,1-.684-5.267c.058-.562.219-1.1.325-1.653h0c.018-.046.035-.093.049-.141.028-.076.052-.155.075-.233q.109-.274.2-.554a1.048,1.048,0,0,1,.161-.225,2.194,2.194,0,0,0,.281-.491,9.367,9.367,0,0,1,1.137-1.824,10.568,10.568,0,0,1,13.332-2.794c.444.239.852.536,1.3.774a.263.263,0,0,1,.044.009c.034.121.148.186.241.262a10.879,10.879,0,0,1,1.478,1.456,10.216,10.216,0,0,1,2.286,8.517,9.827,9.827,0,0,1-3.249,5.911A10.357,10.357,0,0,1,196.5,209.6a2.318,2.318,0,0,0-.806-.172l-.014.007-.047-.017c-.178-.07-.358-.135-.537-.2-.19-.085-.379-.172-.565-.265a.847.847,0,0,0-.648-.07c-1.252.339-2.509.661-3.765.989-.378.1-.754.2-1.135.289a.444.444,0,0,1-.27.008.335.335,0,0,1-.053-.19m15.261-20.46h0m7.778,8.847c0,.008-.009.014-.013.022l-.005-.021h.018m-18.366-10.954c0,.01-.006.019-.009.028a.357.357,0,0,0-.025-.036l.034.008m-7.707,3.884a.743.743,0,0,1,.029-.076c.015.01.029.018.043.027-.025.015-.049.032-.072.049m7.6,22.164s0-.007.006-.011h.01l-.015.011m20.569-20.4c-.053-.054-.09-.128-.048-.172.017.057.033.114.048.172m-.342-.767a.288.288,0,0,1-.021-.07.118.118,0,0,1,.016-.013.432.432,0,0,1,.005.083m-28.767.261.008-.045a.074.074,0,0,1-.008.045m29.532,1.643.029.061a.171.171,0,0,1-.029-.061m-5.907-7.851.073.05a.305.305,0,0,1-.073-.05m-.7-.5.036.031a.076.076,0,0,1-.036-.031m-9.544,29.9a.779.779,0,0,0-.231,0,.285.285,0,0,1,.231,0m.438.172h0m.122-.017a.392.392,0,0,1-.1.016.632.632,0,0,0,.1-.016m.711-.109q-.051-.006-.1-.016a.281.281,0,0,1,.1.016m-9.58-29.873a3.227,3.227,0,0,1,.433-.28.811.811,0,0,1-.433.28m-6.343,8.779c.017-.049.031-.1.051-.147-.015.05-.032.1-.051.147m31.948,9.179a1.853,1.853,0,0,1-.127.437c.045-.145.086-.291.127-.437m-19.225-20.611a.39.39,0,0,0-.007.048H195.9c-.023.027-.051.05-.076.075-.164.2-.395.136-.605.151h-.076c-.06.072-.165.009-.227.076-.086.084-.215,0-.3.076h0c-.08.109-.215,0-.3.076-.13.007-.243.1-.379.076-.022.028-.052.048-.075.075h-.076c-.145.07-.24.288-.454.152l-.227.076c-.022.028-.052.048-.075.075a.522.522,0,0,1-.227.076c-.022.028-.052.048-.076.075a.436.436,0,0,0-.378.151c-.04.046-.111.03-.151.075-.177-.045-.28.135-.437.149a13.869,13.869,0,0,1,3.045-1.175c.441-.124.886-.225,1.335-.308m-4.4,1.5a.416.416,0,0,1-.371.216h0c-.024.026-.052.049-.076.075-.324.116-.6.334-.912.472a6.528,6.528,0,0,1,1.21-.681c.049-.029.1-.054.148-.082m-8.254,20.249.009,0,0,.022-.014-.017m8.145,9.4a.211.211,0,0,0-.014.029.163.163,0,0,1-.021-.027.291.291,0,0,1,.036,0m.18.215a.056.056,0,0,1,.008.028.145.145,0,0,0-.008-.028m23.623-11.059c-.006.01-.009.022-.015.032a3.581,3.581,0,0,1,.145-.8c.04-.422.16-.831.2-1.258a10.912,10.912,0,0,0,.125-1.3,2.731,2.731,0,0,1,.046-.478c0,.071,0,.141,0,.211a12.833,12.833,0,0,1-.494,3.6" transform="translate(-182.361 -182.751)" fill="#51c04f"/>
    <path id="Path_23753" data-name="Path 23753" d="M223.457,235.031a.917.917,0,0,1-.03.444c-.221.8-.434,1.6-.648,2.4-.117.435-.1.459.354.345.827-.21,1.654-.42,2.478-.642a.694.694,0,0,1,.573.074,1.835,1.835,0,0,0,.535.268.742.742,0,0,0,.118.091,8.495,8.495,0,0,0,5.521.746,8.621,8.621,0,0,0,6.524-5.358,6.775,6.775,0,0,0,.574-2.528.74.74,0,0,0,.051-.37,8.55,8.55,0,0,0-2.52-6.468,8.73,8.73,0,0,0-11.155-1.108,5.819,5.819,0,0,0-1.393,1.2,1.288,1.288,0,0,0-.144.117,8.682,8.682,0,0,0-2.25,7.057,8.321,8.321,0,0,0,1.412,3.733m9.435.075a9,9,0,0,1-2.992-1.218,12.55,12.55,0,0,1-3.905-4.136,3.871,3.871,0,0,1-.424-1.006,2.9,2.9,0,0,1,.529-2.836.638.638,0,0,0,.16-.315c.142,0,.249-.1.373-.149a1.038,1.038,0,0,1,1.505.578,8.582,8.582,0,0,0,.407.974,1.407,1.407,0,0,1-.265,1.982.615.615,0,0,0-.063.853,7.8,7.8,0,0,0,1.719,1.94,6.187,6.187,0,0,0,1.692.981.664.664,0,0,0,.9-.225c.2-.226.385-.465.578-.7.265-.317.407-.363.785-.187.433.2.864.409,1.3.6.114.05.225.138.359.082,0,0,0,0,0,0a.343.343,0,0,0,.177.189.6.6,0,0,1,.291.608,1.831,1.831,0,0,1-.821,1.533,2.86,2.86,0,0,1-2.308.445m-3.253-6.962a.418.418,0,0,0,.01.057.06.06,0,0,1-.01-.057m2.291,3.991a.957.957,0,0,0,.133-.074.127.127,0,0,1-.133.074m4.347.407s-.006-.01-.01-.014h.055a.059.059,0,0,0-.044.014m-9.619-.4s0,0,0,.005l0,0,0,0m-2.289,2.992-.008.023c0-.006-.007-.013-.012-.019l.019,0m4.867,2.337-.01.028a.379.379,0,0,0-.043-.048.2.2,0,0,1,.053.02M232.5,222.3l-.007,0,.006-.006h0m-3.112-.226c.034-.01.068-.02.1-.028a.09.09,0,0,1-.1.028m3.1.234,0,0h0l0,0m-9.473,6.256c-.016.008-.028.016-.041.025,0-.031-.007-.061-.008-.092a.141.141,0,0,1,.05.068m12.876-5.12.005,0h0l0,0m3.1,8.927h0" transform="translate(-213.799 -213.433)" fill="#51c04f"/>
  </g>
</svg>
