<svg id="Group_8476" data-name="Group 8476" xmlns="http://www.w3.org/2000/svg" xmlns:xlink="http://www.w3.org/1999/xlink" width="61.483" height="61.155" viewBox="0 0 61.483 61.155">
  <defs>
    <clipPath id="clip-path">
      <rect id="Rectangle_349" data-name="Rectangle 349" width="61.483" height="61.155" fill="#a8de31"/>
    </clipPath>
  </defs>
  <g id="Group_8475" data-name="Group 8475" clip-path="url(#clip-path)">
    <path id="Path_23571" data-name="Path 23571" d="M59.05,17.6a28.75,28.75,0,0,0-6.611-9.18,30.823,30.823,0,0,0-9.767-6.164,32.684,32.684,0,0,0-23.86,0A30.823,30.823,0,0,0,9.044,8.419,28.758,28.758,0,0,0,2.433,17.6,27.206,27.206,0,0,0,0,28.877,27.8,27.8,0,0,0,7.247,47.5L4.739,61.155,18.089,55.2a32.66,32.66,0,0,0,24.582.3,30.819,30.819,0,0,0,9.767-6.164,28.749,28.749,0,0,0,6.611-9.179,27.355,27.355,0,0,0,0-22.557M30.741,54.36A28.726,28.726,0,0,1,18.785,51.8l-.7-.315L9.24,55.432l1.654-9.007-.6-.626a24.479,24.479,0,0,1-6.9-16.923c0-14.052,12.268-25.484,27.348-25.484S58.09,14.825,58.09,28.877,45.821,54.36,30.741,54.36" fill="#a8de31"/>
    <path id="Path_23572" data-name="Path 23572" d="M89.867,81.858c-1.312-.643-2.26-1.054-2.946-1.314-.437-.16-1.432-.6-1.787-.32-1.106.91-2.279,3.453-3.528,3.935-3.107-.613-5.983-2.745-8.238-4.921a28.679,28.679,0,0,1-3.257-4.389c-.065-.753,1.276-1.753,1.571-2.321,1.56-1.761.375-2.847.173-3.588-.346-.758-.957-2.1-1.479-3.216-.445-.732-.544-1.8-1.364-2.21-3.422-1.762-5.372,1.756-6.178,3.591C58,78.753,87.089,100.954,93.006,85.672c.3-1.335.183-1.826-.285-2.441a25.487,25.487,0,0,0-2.854-1.373" transform="translate(-46.674 -47.228)" fill="#a8de31"/>
  </g>
</svg>
