<svg xmlns="http://www.w3.org/2000/svg" xmlns:xlink="http://www.w3.org/1999/xlink" width="117.589" height="117.589" viewBox="0 0 117.589 117.589">
  <defs>
    <clipPath id="clip-path">
      <rect id="Rectangle_342" data-name="Rectangle 342" width="33.368" height="17.29" fill="#67d0ff"/>
    </clipPath>
  </defs>
  <g id="Group_9096" data-name="Group 9096" transform="translate(-444.222 -1158.397)">
    <ellipse id="Ellipse_1819" data-name="Ellipse 1819" cx="57.795" cy="57.795" rx="57.795" ry="57.795" transform="translate(444.222 1273.969) rotate(-89)" fill="#fff"/>
    <g id="Group_8914" data-name="Group 8914" transform="translate(9.333 -36.666)">
      <g id="Ellipse_1822" data-name="Ellipse 1822" transform="translate(471.667 1231.667)" fill="#eaf4fe" stroke="#c4ff8a" stroke-width="1.5">
        <circle cx="22" cy="22" r="22" stroke="none"/>
        <circle cx="22" cy="22" r="21.25" fill="none"/>
      </g>
      <path id="Path_23874" data-name="Path 23874" d="M182.111,116.182l-4.914,4.995a2.586,2.586,0,1,0,.69.7l4.926-5.007a.492.492,0,0,0-.7-.69m-6.379,8.72a1.6,1.6,0,1,1,1.6-1.6,1.6,1.6,0,0,1-1.6,1.6" transform="translate(318.268 1131.462)" fill="#225368" stroke="#225368" stroke-width="1"/>
      <g id="Group_8913" data-name="Group 8913" transform="translate(477.409 1236.376)">
        <g id="Group_8451" data-name="Group 8451" clip-path="url(#clip-path)">
          <path id="Path_23563" data-name="Path 23563" d="M16.684,0A16.7,16.7,0,0,0,0,16.684a.6.6,0,0,0,.875.542H4.7a.606.606,0,0,0,0-1.211H1.227A15.363,15.363,0,0,1,3.02,9.431l2.986,1.724a.606.606,0,0,0,.606-1.049L3.631,8.385a15.6,15.6,0,0,1,4.828-4.8l1.711,2.963a.606.606,0,0,0,1.049-.606L9.508,2.98a15.364,15.364,0,0,1,6.57-1.755V4.64a.606.606,0,0,0,1.211,0V1.224A15.365,15.365,0,0,1,23.86,2.98L22.15,5.942a.606.606,0,1,0,1.049.606l1.711-2.963a15.6,15.6,0,0,1,4.828,4.8l-2.981,1.721a.606.606,0,1,0,.606,1.049l2.986-1.724a15.365,15.365,0,0,1,1.793,6.584H28.664a.606.606,0,1,0,0,1.211h3.829a.6.6,0,0,0,.875-.542A16.7,16.7,0,0,0,16.684,0" fill="#67d0ff"/>
        </g>
      </g>
    </g>
  </g>
</svg>
