<svg xmlns="http://www.w3.org/2000/svg" width="117.589" height="117.589" viewBox="0 0 117.589 117.589">
  <g id="Group_9094" data-name="Group 9094" transform="translate(-890.021 -1158.397)">
    <g id="Group_9093" data-name="Group 9093">
      <ellipse id="Ellipse_1820" data-name="Ellipse 1820" cx="57.795" cy="57.795" rx="57.795" ry="57.795" transform="translate(892.039 1275.986) rotate(-91)" fill="#fff"/>
      <path id="Path_23867" data-name="Path 23867" d="M8213.8-8525.755h34V-8546.4h7l-24.2-18.4-23.4,18.4h6.6Z" transform="translate(-7283.133 9760)" fill="#eaf4fe"/>
    </g>
    <g id="Group_8909" data-name="Group 8909" transform="translate(672.384 443.594)">
      <path id="Path_23850" data-name="Path 23850" d="M39.187,42.039a5.684,5.684,0,1,0-7.215,0A6.635,6.635,0,0,0,28,48.1a.947.947,0,0,0,.947.947H42.211a.947.947,0,0,0,.947-.947,6.636,6.636,0,0,0-3.971-6.065" transform="translate(239.904 741.6)" fill="#c4ff8a" stroke="#225368" stroke-width="1"/>
      <path id="Path_23866" data-name="Path 23866" d="M7555-8970.156s4.181,2.979,7.711,0" transform="translate(-7283.485 9753.677)" fill="none" stroke="#225368" stroke-width="1"/>
    </g>
  </g>
</svg>
