<svg xmlns="http://www.w3.org/2000/svg" width="117.589" height="117.589" viewBox="0 0 117.589 117.589">
  <g id="Group_9095" data-name="Group 9095" transform="translate(-667.123 -1158.397)">
    <ellipse id="Ellipse_1817" data-name="Ellipse 1817" cx="57.795" cy="57.795" rx="57.795" ry="57.795" transform="translate(669.14 1275.986) rotate(-91)" fill="#fff"/>
    <path id="Path_23380" data-name="Path 23380" d="M34.8,25.6H2.969A2.972,2.972,0,0,1,0,22.634V2.969A2.972,2.972,0,0,1,2.969,0H34.8a2.972,2.972,0,0,1,2.969,2.969V22.634A2.972,2.972,0,0,1,34.8,25.6" transform="translate(707.035 1207.17)" fill="#eaf4fe" stroke="#225368" stroke-width="1"/>
    <path id="Path_23381" data-name="Path 23381" d="M21.856,47.726a.645.645,0,0,1-.356-.107L3.564,35.728a.645.645,0,0,1,.713-1.075l17.58,11.655,17.58-11.655a.645.645,0,0,1,.713,1.075L22.212,47.619a.645.645,0,0,1-.356.107" transform="translate(704.062 1175.809)" fill="#97dfff"/>
  </g>
</svg>
