<svg xmlns="http://www.w3.org/2000/svg" width="113.59" height="106.558" viewBox="0 0 113.59 106.558">
  <g id="Group_8901" data-name="Group 8901" transform="translate(-903.205 -6313.876)">
    <path id="Path_23524" data-name="Path 23524" d="M73.991,9.548a19.243,19.243,0,0,1,1.4,3.143,26.809,26.809,0,0,1,.524,14.5c-1.071,4.652-1.638,5.4-2.754,10.024-1.9,7.852-2.111,16.139-2.564,24.308s-1.2,16.5-4.039,23.913c-4.861,12.678-15.486,19.2-26.184,13.007-6.428-3.719-9.468-11.322-14.564-16.92C20.059,75.2,12.242,72.107,6.8,65.382.93,58.135-1.425,46.908.864,37.095s10.9-21.209,22.877-29.206C29.2,4.636,36.387,1.98,45.82.451c8.38-1.359,16.683.727,19,1.37A15.832,15.832,0,0,1,73.991,9.548Z" transform="translate(917.834 6420.434) rotate(-101)" fill="#c4ff8a" opacity="0.51"/>
    <path id="Path_23534" data-name="Path 23534" d="M343.623,312.773h-2.876V309.9a.9.9,0,0,0-1.8,0v2.876h-2.517a.9.9,0,1,0,0,1.8h2.517v2.877a.9.9,0,0,0,1.8,0V314.57h2.876a.9.9,0,1,0,0-1.8" transform="translate(669.583 6075.407)" fill="#c4ff8a"/>
    <g id="Group_8444" data-name="Group 8444" transform="translate(919.938 6348.087)">
      <path id="Path_23525" data-name="Path 23525" d="M249.05,46.992a.928.928,0,0,1-.928-.928V38.645a.928.928,0,0,1,1.856,0v7.419a.928.928,0,0,1-.928.928" transform="translate(-244.597 -37.717)" fill="#67d0ff"/>
      <path id="Path_23526" data-name="Path 23526" d="M249.523,46.521H242.1a.927.927,0,0,1,0-1.855h7.421a.927.927,0,0,1,0,1.855" transform="translate(-241.174 -41.141)" fill="#67d0ff"/>
    </g>
    <path id="Path_23531" data-name="Path 23531" d="M46.489,14.528a.608.608,0,0,1-.586-.446c-1.173-4.244-1.988-5.06-6.232-6.232a.608.608,0,0,1,0-1.172C43.915,5.506,44.731,4.69,45.9.446a.608.608,0,0,1,1.172,0c1.172,4.244,1.987,5.06,6.232,6.232a.608.608,0,0,1,0,1.172c-4.245,1.172-5.06,1.988-6.232,6.232a.608.608,0,0,1-.586.446M41.881,7.264a6.525,6.525,0,0,1,4.608,4.608A6.524,6.524,0,0,1,51.1,7.264a6.524,6.524,0,0,1-4.609-4.608,6.523,6.523,0,0,1-4.608,4.608" transform="translate(936.046 6313.876)" fill="#ffbb01"/>
    <g id="Group_8445" data-name="Group 8445" transform="translate(937.993 6336.269)">
      <path id="Path_23506" data-name="Path 23506" d="M.8,204.944A29.266,29.266,0,0,0,5.6,216.6a33.607,33.607,0,0,0,6.836,2.518l2.228-3.475L2.146,185.635S-1.6,190.161.8,204.944" transform="translate(0 -144.856)" fill="#67d0ff"/>
      <path id="Path_23507" data-name="Path 23507" d="M131.733,215.645l1.878,2.93a33.715,33.715,0,0,0,8.483-4.04,28.36,28.36,0,0,0,3.5-9.592c2.4-14.783-1.342-19.309-1.342-19.309Z" transform="translate(-102.794 -144.855)" fill="#67d0ff"/>
      <path id="Path_23508" data-name="Path 23508" d="M56.132,98.061l3.277-4.853a6.413,6.413,0,0,0,.813-3.113,6.035,6.035,0,0,0-2.229-4.716c-1.528-1.252-3.072-3.578-3.509-10.03-.1-1.462-.105-2.332-6.219-2.332a25.627,25.627,0,0,0-2.976.2,55.628,55.628,0,0,1-5.849.379c-1.323,0-2.536-.1-2.536-.1-3.2,0-2.153,5.83-5.766,13.548a5.006,5.006,0,0,0-.444,2.15c0,4.023,1.977,3.318,2.628,4.945Z" transform="translate(-23.952 -56.976)" fill="#225368"/>
      <path id="Path_23509" data-name="Path 23509" d="M41.238,161.84l-9.457-3.685-2.376,9.825a17.845,17.845,0,0,1-9.458.191l-2.422-10.016L8.068,161.84a6.912,6.912,0,0,0-4.161,8.254l10.053,25.49a3.987,3.987,0,0,0,1.324,2.09,34.015,34.015,0,0,0,19.562-.935,3.557,3.557,0,0,0,.5-1.155L45.4,170.094a6.913,6.913,0,0,0-4.161-8.254" transform="translate(-2.859 -123.413)" fill="#a5e3ff"/>
      <path id="Path_23510" data-name="Path 23510" d="M86.783,125.243H77.278a26.612,26.612,0,0,0,0-13.664h9.505c-1.554,4.818-1.108,8.186,0,13.664" transform="translate(-60.302 -87.068)" fill="#f7d6b4"/>
      <path id="Path_23511" data-name="Path 23511" d="M77.278,111.579a29.2,29.2,0,0,1,.885,6.172,7.8,7.8,0,0,0,3.934,1.506,7.5,7.5,0,0,0,3.687-1.41,19.087,19.087,0,0,1,1-6.268Z" transform="translate(-60.302 -87.068)" fill="#f7c999"/>
      <path id="Path_23512" data-name="Path 23512" d="M69.9,23.974C69.9,32.053,61.909,38.6,58.41,38.6c-3.73,0-11.486-6.549-11.486-14.628S52.067,9.346,58.41,9.346,69.9,15.9,69.9,23.974" transform="translate(-36.615 -7.293)" fill="#f7d6b4"/>
      <path id="Path_23513" data-name="Path 23513" d="M66.635,8.941a24.242,24.242,0,0,1,1.2,6.407l-.091.833c-.186.022-3.95-1.5-5.378-1.887-2.084-1.229-3.792-3.158-5.082-3.158a3.6,3.6,0,0,0-2.373,1.17,18.7,18.7,0,0,1-8.973,4.567c-.112,0-.232.009-.354.009-1.285,0-.941-1.654-1.263-2.859a15.015,15.015,0,0,1-.146-2.007C44.178,5.219,47.654,0,55.7,0a11.2,11.2,0,0,1,9.154,4.942q.146.226.291.456a11.851,11.851,0,0,1,1.487,3.544" transform="translate(-34.473 0)" fill="#225368"/>
      <path id="Path_23514" data-name="Path 23514" d="M76.278,197.824h9.776l-4.569,30.1Z" transform="translate(-59.521 -154.367)" fill="#fff"/>
      <path id="Path_23515" data-name="Path 23515" d="M73.562,168.718a17.626,17.626,0,0,0,5.083-.737l2.376-9.825H66.764l2.422,10.016a17.72,17.72,0,0,0,4.376.546" transform="translate(-52.098 -123.413)" fill="#f7d6b4"/>
      <path id="Path_23516" data-name="Path 23516" d="M151.588,73.208c0,1.448-.433,2.653-.945,2.653s-.907-1.2-.907-2.653.4-2.7.907-2.7.945,1.256.945,2.7" transform="translate(-116.842 -55.016)" fill="#c4ff8a"/>
      <path id="Path_23517" data-name="Path 23517" d="M148.227,70.5h-.68a.908.908,0,0,0-.907.907v3.542a.908.908,0,0,0,.907.907h.68a27.151,27.151,0,0,1,0-5.356" transform="translate(-114.425 -55.016)" fill="#111212"/>
      <path id="Path_23518" data-name="Path 23518" d="M156.657,78.441c0,.662-.1,1.2-.213,1.2s-.212-.536-.212-1.2.1-1.2.212-1.2.213.536.213,1.2" transform="translate(-121.911 -60.275)" fill="#111212"/>
      <path id="Path_23519" data-name="Path 23519" d="M157.52,81.4a.224.224,0,0,1-.449,0v-.388a.224.224,0,0,1,.449,0Z" transform="translate(-122.566 -63.044)" fill="#111212"/>
      <path id="Path_23520" data-name="Path 23520" d="M39.871,73.208c0,1.448.433,2.653.945,2.653s.907-1.2.907-2.653-.4-2.7-.907-2.7-.945,1.256-.945,2.7" transform="translate(-31.112 -55.016)" fill="#c4ff8a"/>
      <path id="Path_23521" data-name="Path 23521" d="M44.172,70.5h.681a.907.907,0,0,1,.907.907v3.542a.907.907,0,0,1-.907.907h-.681a27.151,27.151,0,0,0,0-5.356" transform="translate(-34.468 -55.016)" fill="#111212"/>
      <path id="Path_23522" data-name="Path 23522" d="M104.78,122.388l-3.015.226c-.94-.067-.827-1.8.128-1.812l2.984.651a1.936,1.936,0,0,1-.1.935" transform="translate(-78.903 -94.265)" fill="#111212"/>
      <path id="Path_23523" data-name="Path 23523" d="M115.381,91.682s.235,0,.653-.039a14.127,14.127,0,0,0,1.711-.269c.349-.082.727-.173,1.117-.3a10.852,10.852,0,0,0,1.205-.458,10.054,10.054,0,0,0,1.215-.646,8.226,8.226,0,0,0,1.127-.859c.183-.152.338-.333.5-.5s.306-.359.446-.546a6.92,6.92,0,0,0,.7-1.178l.139-.3c.041-.1.075-.2.112-.3l.108-.3c.032-.1.055-.2.082-.3a9.2,9.2,0,0,0,.232-1.128c.029-.356.08-.681.074-.973s.019-.544,0-.753c-.022-.418-.034-.656-.034-.656l.219-.019.036.668c.019.212,0,.471,0,.768s-.045.63-.074.995a9.432,9.432,0,0,1-.236,1.158c-.028.1-.052.205-.084.308l-.111.308c-.038.1-.073.21-.115.314l-.143.31a7.165,7.165,0,0,1-.719,1.217c-.145.192-.3.38-.46.564s-.332.36-.519.518a8.444,8.444,0,0,1-1.158.885,10.266,10.266,0,0,1-1.243.663,11.118,11.118,0,0,1-1.23.469c-.4.132-.782.225-1.137.309a14.415,14.415,0,0,1-1.74.276c-.423.039-.671.041-.671.041Z" transform="translate(-90.035 -64.106)" fill="#111212"/>
    </g>
  </g>
</svg>
