<svg xmlns="http://www.w3.org/2000/svg" width="74.825" height="78.078" viewBox="0 0 74.825 78.078">
  <g id="Group_8477" data-name="Group 8477" transform="translate(-361.696 -313.431)">
    <path id="Path_8151" data-name="Path 8151" d="M51.646,5.672a10.674,10.674,0,0,1,.98,1.867,13.663,13.663,0,0,1,.366,8.617c-.748,2.764-1.143,3.211-1.922,5.956-1.324,4.665-1.473,9.588-1.79,14.442s-.836,9.8-2.819,14.207c-3.393,7.532-10.809,11.406-18.277,7.728-4.487-2.21-6.609-6.726-10.166-10.052C14,44.68,8.545,42.84,4.744,38.845A18.051,18.051,0,0,1,.6,22.039c1.6-5.83,7.607-12.6,15.969-17.352A48.71,48.71,0,0,1,31.982.268a38.731,38.731,0,0,1,13.26.814A10.8,10.8,0,0,1,51.646,5.672Z" transform="translate(364.195 375) rotate(-74)" fill="#fff" opacity="0.33"/>
    <path id="Path_23467" data-name="Path 23467" d="M340.072,311.115h-1.613V309.5a.5.5,0,0,0-1.008,0v1.613h-1.412a.5.5,0,1,0,0,1.008h1.412v1.614a.5.5,0,0,0,1.008,0v-1.614h1.613a.5.5,0,1,0,0-1.008" transform="translate(85.007 68.029)" fill="#fff"/>
    <path id="Path_23468" data-name="Path 23468" d="M248.642,42.92a.52.52,0,0,1-.52-.52V38.237a.521.521,0,0,1,1.041,0V42.4a.521.521,0,0,1-.521.52" transform="translate(157.199 282.294)" fill="#a5e3ff"/>
    <path id="Path_23469" data-name="Path 23469" d="M245.857,45.707h-4.163a.52.52,0,0,1,0-1.041h4.163a.52.52,0,0,1,0,1.041" transform="translate(162.17 277.322)" fill="#a5e3ff"/>
    <path id="Path_23470" data-name="Path 23470" d="M394.71,114.8a.313.313,0,0,1-.307-.256c-.361-1.962-.575-2.175-2.536-2.536a.312.312,0,0,1,0-.615c1.962-.361,2.175-.575,2.536-2.536a.313.313,0,0,1,.615,0c.361,1.962.575,2.175,2.536,2.536a.313.313,0,0,1,0,.615c-1.962.361-2.175.575-2.536,2.536a.313.313,0,0,1-.307.256m-1.462-3.1a2.082,2.082,0,0,1,1.462,1.462,2.081,2.081,0,0,1,1.462-1.462,2.081,2.081,0,0,1-1.462-1.462,2.082,2.082,0,0,1-1.462,1.462" transform="translate(37.711 224.542)" fill="#c4ff8a"/>
    <path id="Path_23471" data-name="Path 23471" d="M3.925,144.366a.764.764,0,0,1-.366.133.756.756,0,0,1-.694-.318L.142,140.355a.764.764,0,0,1,.55-1.2l4.676-.445a.764.764,0,0,1,.767,1.077l-1.953,4.272a.764.764,0,0,1-.256.309m.025-.415h0ZM.619,139.7a.263.263,0,0,0-.086.1.25.25,0,0,0,.024.253l2.723,3.827a.254.254,0,0,0,.439-.042l1.953-4.272a.255.255,0,0,0-.256-.359l-4.676.445a.253.253,0,0,0-.121.043" transform="translate(361.696 200.791)" fill="#fff"/>
    <path id="Path_23472" data-name="Path 23472" d="M43.3,8.15a.341.341,0,0,1-.329-.25c-.658-2.381-1.115-2.839-3.5-3.5a.341.341,0,0,1,0-.657c2.381-.657,2.838-1.115,3.5-3.5a.341.341,0,0,1,.657,0c.658,2.381,1.115,2.838,3.5,3.5a.341.341,0,0,1,0,.657c-2.381.658-2.838,1.115-3.5,3.5a.341.341,0,0,1-.329.25M40.715,4.075A3.661,3.661,0,0,1,43.3,6.66a3.66,3.66,0,0,1,2.585-2.585A3.66,3.66,0,0,1,43.3,1.49a3.659,3.659,0,0,1-2.585,2.585" transform="translate(327.133 313.431)" fill="#ffbb01"/>
    <rect id="Rectangle_328" data-name="Rectangle 328" width="6.038" height="6.038" transform="translate(368.47 315.543)" fill="none"/>
    <path id="Path_23489" data-name="Path 23489" d="M66.011,58.567a.589.589,0,0,1-.589-.589,7.524,7.524,0,0,1,7.515-7.515.589.589,0,1,1,0,1.179A6.344,6.344,0,0,0,66.6,57.977a.589.589,0,0,1-.589.589" transform="translate(307.572 273.795)" fill="#3a5c91"/>
    <path id="Path_23490" data-name="Path 23490" d="M83.078,72.686a.589.589,0,0,1-.589-.589,4.573,4.573,0,0,1,4.568-4.568.589.589,0,0,1,0,1.179A3.393,3.393,0,0,0,83.668,72.1a.589.589,0,0,1-.589.589" transform="translate(293.452 259.676)" fill="#3a5c91"/>
    <path id="Path_23491" data-name="Path 23491" d="M48.945,44.447a.589.589,0,0,1-.589-.589A10.474,10.474,0,0,1,58.818,33.395a.589.589,0,1,1,0,1.179,9.294,9.294,0,0,0-9.284,9.283.589.589,0,0,1-.589.589" transform="translate(321.691 287.915)" fill="#3a5c91"/>
    <path id="Path_23433" data-name="Path 23433" d="M109.653,74.374H87.027l17.757-3.744,1.759-.371.377-.08a1.7,1.7,0,0,1,2.014,1.266Z" transform="translate(299.969 267.004)" fill="#fff"/>
    <path id="Path_23434" data-name="Path 23434" d="M70.242,4.845,50.283,9.055,65.611.229a1.709,1.709,0,0,1,2.334.628Z" transform="translate(333.614 331.23)" fill="#fff"/>
    <path id="Path_23435" data-name="Path 23435" d="M28.951,160.676a3.423,3.423,0,0,1-3.419-3.419V152.13a3.422,3.422,0,0,1,3.419-3.419h7.8V142.3a1.711,1.711,0,0,0-1.709-1.709H1.709A1.71,1.71,0,0,0,0,142.3v24.785A1.711,1.711,0,0,0,1.709,168.8H35.041a1.711,1.711,0,0,0,1.709-1.709v-6.41Z" transform="translate(379.657 202.495)" fill="#baf97b"/>
    <path id="Path_23436" data-name="Path 23436" d="M334.107,257.127h-9.4A1.709,1.709,0,0,0,323,258.836v5.128a1.709,1.709,0,0,0,1.709,1.709h9.4a1.709,1.709,0,0,0,1.709-1.709v-5.128a1.709,1.709,0,0,0-1.709-1.709m-7.2,6.2a1.923,1.923,0,1,1,1.923-1.923,1.923,1.923,0,0,1-1.923,1.923" transform="translate(83.902 95.788)" fill="#225368"/>
    <circle id="Ellipse_1764" data-name="Ellipse 1764" cx="2.031" cy="2.031" r="2.031" transform="translate(408.547 355.04)" fill="#fff"/>
  </g>
</svg>
