<svg xmlns="http://www.w3.org/2000/svg" width="25.925" height="30.807" viewBox="0 0 25.925 30.807">
  <g id="Group_9102" data-name="Group 9102" transform="translate(-399.699 -676.692)">
    <path id="Path_23600" data-name="Path 23600" d="M21.651,36.2H8.4A2.008,2.008,0,0,1,6.39,34.188V8.4A2.008,2.008,0,0,1,8.4,6.389H21.651A2.009,2.009,0,0,1,23.659,8.4v25.79A2.009,2.009,0,0,1,21.651,36.2" transform="translate(393.809 670.803)" fill="#eaf4fe" stroke="#225368" stroke-width="1"/>
    <path id="Path_23599" data-name="Path 23599" d="M134.456,84.626a9.1,9.1,0,1,1-9.1-9.1,9.1,9.1,0,0,1,9.1,9.1" transform="translate(291.168 607.47)" fill="#c4ff8a"/>
    <text id="_" data-name="!" transform="translate(416.563 696.998)" fill="#225368" font-size="15" font-family="OpenSans-Regular, Open Sans"><tspan x="-2.003" y="0">!</tspan></text>
  </g>
</svg>
