<svg xmlns="http://www.w3.org/2000/svg" width="25.925" height="30.807" viewBox="0 0 25.925 30.807">
  <g id="Group_9099" data-name="Group 9099" transform="translate(-269.136 -575.694)">
    <path id="Path_23576" data-name="Path 23576" d="M21.651,36.2H8.4A2.008,2.008,0,0,1,6.39,34.188V8.4A2.008,2.008,0,0,1,8.4,6.389H21.651A2.009,2.009,0,0,1,23.659,8.4v25.79A2.009,2.009,0,0,1,21.651,36.2" transform="translate(263.246 569.805)" fill="#eaf4fe" stroke="#225368" stroke-width="1"/>
    <path id="Path_23575" data-name="Path 23575" d="M134.456,84.626a9.1,9.1,0,1,1-9.1-9.1,9.1,9.1,0,0,1,9.1,9.1" transform="translate(160.605 506.471)" fill="#c4ff8a"/>
    <text id="_" data-name="+" transform="translate(286 596)" fill="#225368" font-size="15" font-family="OpenSans-Regular, Open Sans"><tspan x="-4.288" y="0">+</tspan></text>
  </g>
</svg>
