<svg xmlns="http://www.w3.org/2000/svg" width="28.882" height="28.881" viewBox="0 0 28.882 28.881">
  <g id="Group_9098" data-name="Group 9098" transform="translate(-395.034 -578.326)">
    <path id="Path_23594" data-name="Path 23594" d="M41.91,29.13V25.559H38.338" transform="translate(360.418 555.303)" fill="none" stroke="#67d0ff" stroke-width="1.5"/>
    <path id="Path_23593" data-name="Path 23593" d="M230.032,242.811v3.572H233.6" transform="translate(186.586 358.288)" fill="none" stroke="#225368" stroke-width="1.5"/>
    <g id="Group_9097" data-name="Group 9097">
      <path id="Path_23598" data-name="Path 23598" d="M134.456,84.626a9.1,9.1,0,1,1-9.1-9.1,9.1,9.1,0,0,1,9.1,9.1" transform="translate(283.945 508.374)" fill="#c4ff8a"/>
      <path id="Path_23595" data-name="Path 23595" d="M23.855,52.8A13.694,13.694,0,0,1,12.937,27.955" transform="translate(389.395 553.129)" fill="none" stroke="#67d0ff" stroke-width="1.5"/>
      <path id="Path_23592" data-name="Path 23592" d="M112.651,6.921a13.694,13.694,0,0,1,10.889,24.87" transform="translate(293.031 572.686)" fill="none" stroke="#225368" stroke-width="1.5"/>
      <path id="Union_3" data-name="Union 3" d="M7.828,8.17a3.788,3.788,0,1,0-7.577,0A.126.126,0,1,1,0,8.17,4.051,4.051,0,0,1,3.3,4.193a2.158,2.158,0,1,1,1.485,0,4.051,4.051,0,0,1,3.3,3.977.125.125,0,1,1-.251,0Zm-5.7-6.008A1.908,1.908,0,1,0,4.04.252,1.911,1.911,0,0,0,2.132,2.162Z" transform="translate(405.684 588.628)" fill="#baf97b" stroke="#225368" stroke-width="1"/>
    </g>
  </g>
</svg>
