<svg xmlns="http://www.w3.org/2000/svg" xmlns:xlink="http://www.w3.org/1999/xlink" width="79.432" height="69.939" viewBox="0 0 79.432 69.939">
  <defs>
    <clipPath id="clip-path">
      <rect id="Rectangle_342" data-name="Rectangle 342" width="33.703" height="17.463" fill="#67d0ff"/>
    </clipPath>
  </defs>
  <g id="Group_8478" data-name="Group 8478" transform="translate(-542.748 -685.116)">
    <path id="Path_23505" data-name="Path 23505" d="M47.83,7a15.124,15.124,0,0,1,.908,2.305,22.209,22.209,0,0,1,.339,10.638c-.693,3.412-1.059,3.964-1.78,7.352-1.226,5.759-1.364,11.837-1.657,17.829s-.774,12.1-2.611,17.539c-3.142,9.3-10.01,14.081-16.926,9.541-4.155-2.728-6.12-8.3-9.414-12.41-3.721-4.638-8.774-6.91-12.294-11.843C.6,42.64-.921,34.406.559,27.208S7.6,11.652,15.347,5.786A37.149,37.149,0,0,1,29.619.331a27.237,27.237,0,0,1,12.28,1A10.667,10.667,0,0,1,47.83,7Z" transform="translate(542.748 746.043) rotate(-83)" fill="#fff" opacity="0.33"/>
    <g id="Group_8453" data-name="Group 8453" transform="translate(603.412 696.5)">
      <path id="Path_23525" data-name="Path 23525" d="M248.872,45.209a.75.75,0,0,1-.75-.749V38.466a.75.75,0,0,1,1.5,0V44.46a.75.75,0,0,1-.75.749" transform="translate(-245.274 -37.717)" fill="#67d0ff"/>
      <path id="Path_23526" data-name="Path 23526" d="M247.918,46.164h-6a.749.749,0,0,1,0-1.5h6a.749.749,0,0,1,0,1.5" transform="translate(-241.174 -41.819)" fill="#67d0ff"/>
    </g>
    <path id="Path_23564" data-name="Path 23564" d="M45.093,11.736a.491.491,0,0,1-.473-.36c-.947-3.429-1.606-4.088-5.035-5.035a.491.491,0,0,1,0-.947C43.014,4.448,43.673,3.789,44.62.36a.491.491,0,0,1,.947,0c.947,3.429,1.605,4.087,5.034,5.034a.491.491,0,0,1,0,.947c-3.429.947-4.087,1.606-5.034,5.035a.491.491,0,0,1-.473.36M41.371,5.868a5.271,5.271,0,0,1,3.723,3.723,5.27,5.27,0,0,1,3.723-3.723,5.27,5.27,0,0,1-3.723-3.723,5.27,5.27,0,0,1-3.723,3.723" transform="translate(513.749 685.116)" fill="#ffbb01"/>
    <path id="Path_23565" data-name="Path 23565" d="M43.723,9a.376.376,0,0,1-.363-.276C42.634,6.092,42.13,5.587,39.5,4.861a.376.376,0,0,1,0-.726C42.13,3.41,42.634,2.9,43.361.276a.376.376,0,0,1,.726,0c.726,2.628,1.231,3.133,3.859,3.859a.376.376,0,0,1,0,.726c-2.628.726-3.133,1.231-3.859,3.859A.376.376,0,0,1,43.723,9M40.87,4.5a4.041,4.041,0,0,1,2.854,2.854A4.04,4.04,0,0,1,46.577,4.5a4.04,4.04,0,0,1-2.854-2.854A4.04,4.04,0,0,1,40.87,4.5" transform="translate(556.801 739.583)" fill="#225368"/>
    <g id="Ellipse_1765" data-name="Ellipse 1765" transform="translate(556.859 696.5)" fill="#fff" stroke="#c4ff8a" stroke-width="1.5">
      <circle cx="21.884" cy="21.884" r="21.884" stroke="none"/>
      <circle cx="21.884" cy="21.884" r="21.134" fill="none"/>
    </g>
    <path id="Path_23562" data-name="Path 23562" d="M182.2,116.184l-4.964,5.045a2.612,2.612,0,1,0,.7.71l4.976-5.057a.5.5,0,0,0-.709-.7m-6.443,8.807a1.615,1.615,0,1,1,1.615-1.615,1.617,1.617,0,0,1-1.615,1.615" transform="translate(403.322 596.117)" fill="#225368" stroke="#225368" stroke-width="1"/>
    <g id="Group_8452" data-name="Group 8452" transform="translate(562.323 700.921)">
      <g id="Group_8451" data-name="Group 8451" clip-path="url(#clip-path)">
        <path id="Path_23563" data-name="Path 23563" d="M16.851,0A16.87,16.87,0,0,0,0,16.851a.611.611,0,0,0,.883.548H4.751a.612.612,0,1,0,0-1.224H1.239a15.517,15.517,0,0,1,1.811-6.65l3.016,1.741a.612.612,0,0,0,.612-1.06L3.667,8.469A15.752,15.752,0,0,1,8.543,3.621l1.728,2.993A.612.612,0,0,0,11.331,6L9.6,3.01a15.518,15.518,0,0,1,6.636-1.773v3.45a.612.612,0,0,0,1.224,0V1.237A15.519,15.519,0,0,1,24.1,3.01L22.372,6a.612.612,0,1,0,1.06.612l1.728-2.993a15.752,15.752,0,0,1,4.876,4.848l-3.011,1.738a.612.612,0,1,0,.612,1.06l3.016-1.741a15.519,15.519,0,0,1,1.811,6.65H28.952a.612.612,0,0,0,0,1.224h3.868a.611.611,0,0,0,.883-.548A16.87,16.87,0,0,0,16.851,0" fill="#67d0ff"/>
      </g>
    </g>
  </g>
</svg>
