<svg xmlns="http://www.w3.org/2000/svg" xmlns:xlink="http://www.w3.org/1999/xlink" width="26.887" height="31.935" viewBox="0 0 26.887 31.935">
  <defs>
    <clipPath id="clip-path">
      <rect id="Rectangle_331" data-name="Rectangle 331" width="7.658" height="8.195" transform="translate(0 0)" fill="#225368"/>
    </clipPath>
  </defs>
  <g id="Group_9094" data-name="Group 9094" transform="translate(-488.081 -511.881)">
    <path id="Path_23492" data-name="Path 23492" d="M22.228,37.324H8.474A2.084,2.084,0,0,1,6.39,35.24V8.474A2.084,2.084,0,0,1,8.474,6.389H22.228a2.085,2.085,0,0,1,2.085,2.085V35.24a2.085,2.085,0,0,1-2.085,2.085" transform="translate(482.191 505.992)" fill="#eaf4fe" stroke="#225368" stroke-width="1"/>
    <path id="Path_23493" data-name="Path 23493" d="M135.145,84.97a9.446,9.446,0,1,1-9.446-9.445,9.446,9.446,0,0,1,9.446,9.445" transform="translate(379.824 442.878)" fill="#c4ff8a"/>
    <g id="Group_8441" data-name="Group 8441" transform="translate(501.695 523.752)">
      <g id="Group_8440" data-name="Group 8440" transform="translate(0 0)" clip-path="url(#clip-path)">
        <path id="Path_23497" data-name="Path 23497" d="M.986,8.187H0V.018A.566.566,0,0,1,.072.008c1,0,1.991-.019,2.986,0A2.384,2.384,0,0,1,4.835.765a2.776,2.776,0,0,1,.672,1.554,7.529,7.529,0,0,1,.062.893c.009.593,0,1.187,0,1.78v.152H4.588c0-.054-.008-.11-.008-.166,0-.642.014-1.286-.013-1.927a4.715,4.715,0,0,0-.168-1.1A1.374,1.374,0,0,0,3.026.892C2.365.869,1.7.884,1.04.882A.282.282,0,0,0,.986.9Z" transform="translate(0 0)" fill="#225368"/>
        <path id="Path_23498" data-name="Path 23498" d="M17.475,7.336V.048h.963V8.219a1.257,1.257,0,0,1-.125.014c-.966,0-1.932.01-2.9-.011a2.417,2.417,0,0,1-1.8-.748,2.745,2.745,0,0,1-.678-1.55,7.953,7.953,0,0,1-.064-.937c-.01-.579,0-1.157,0-1.736V3.085h.989c0,.057,0,.114,0,.171.005.706,0,1.413.019,2.118a2.862,2.862,0,0,0,.255,1.155,1.38,1.38,0,0,0,1.286.808c.666.028,1.334.01,2,.011a.262.262,0,0,0,.051-.012" transform="translate(-10.78 -0.04)" fill="#225368"/>
      </g>
    </g>
  </g>
</svg>
