<svg xmlns="http://www.w3.org/2000/svg" width="79.67" height="74.737" viewBox="0 0 79.67 74.737">
  <g id="Group_9093" data-name="Group 9093" transform="translate(-539.79 -799)">
    <path id="Path_23524" data-name="Path 23524" d="M51.9,6.7a13.5,13.5,0,0,1,.985,2.2,18.8,18.8,0,0,1,.368,10.173c-.752,3.263-1.149,3.79-1.931,7.031-1.331,5.507-1.48,11.319-1.8,17.049s-.84,11.573-2.833,16.772c-3.409,8.892-10.861,13.465-18.365,9.123-4.508-2.609-6.641-7.941-10.215-11.867-4.038-4.435-9.52-6.608-13.339-11.324C.652,40.775-1,32.9.606,26.018S8.25,11.142,16.652,5.533A43.644,43.644,0,0,1,32.137.316a33.324,33.324,0,0,1,13.324.961A11.1,11.1,0,0,1,51.9,6.7Z" transform="translate(550.051 873.737) rotate(-101)" fill="#fff" opacity="0.51"/>
    <path id="Path_23534" data-name="Path 23534" d="M341.208,311.645H339.19v-2.017a.63.63,0,0,0-1.261,0v2.017h-1.765a.63.63,0,1,0,0,1.261h1.765v2.018a.63.63,0,0,0,1.261,0v-2.018h2.017a.63.63,0,1,0,0-1.261" transform="translate(275.735 530.469)" fill="#fff"/>
    <path id="Path_23525" data-name="Path 23525" d="M248.773,44.222a.651.651,0,0,1-.651-.651v-5.2a.651.651,0,0,1,1.3,0v5.2a.651.651,0,0,1-.651.651" transform="translate(305.877 785.277)" fill="#67d0ff"/>
    <path id="Path_23526" data-name="Path 23526" d="M247.03,45.967h-5.205a.65.65,0,0,1,0-1.3h5.205a.65.65,0,0,1,0,1.3" transform="translate(310.353 780.801)" fill="#67d0ff"/>
    <path id="Path_23531" data-name="Path 23531" d="M44.32,10.189a.426.426,0,0,1-.411-.313c-.822-2.977-1.394-3.549-4.371-4.371a.426.426,0,0,1,0-.822c2.977-.822,3.549-1.394,4.371-4.371a.426.426,0,0,1,.822,0c.822,2.977,1.394,3.549,4.371,4.371a.426.426,0,0,1,0,.822c-2.977.822-3.549,1.394-4.371,4.371a.426.426,0,0,1-.411.313M41.088,5.095A4.577,4.577,0,0,1,44.32,8.327a4.576,4.576,0,0,1,3.232-3.232A4.576,4.576,0,0,1,44.32,1.863a4.575,4.575,0,0,1-3.232,3.232" transform="translate(551.111 799)" fill="#ffbb01"/>
    <g id="Group_8445" data-name="Group 8445" transform="translate(11.961 1.205)">
      <path id="Path_23506" data-name="Path 23506" d="M.564,199.178a20.526,20.526,0,0,0,3.365,8.177,23.57,23.57,0,0,0,4.794,1.766l1.562-2.437L1.5,185.635s-2.626,3.174-.941,13.543" transform="translate(552.229 656.467)" fill="#67d0ff"/>
      <path id="Path_23507" data-name="Path 23507" d="M131.733,206.683l1.317,2.055A23.647,23.647,0,0,0,139,205.9a19.891,19.891,0,0,0,2.455-6.728c1.685-10.369-.941-13.543-.941-13.543Z" transform="translate(440.793 656.468)" fill="#67d0ff"/>
      <path id="Path_23508" data-name="Path 23508" d="M48.536,90.582l2.3-3.4a4.5,4.5,0,0,0,.57-2.184,4.233,4.233,0,0,0-1.564-3.308c-1.072-.878-2.154-2.51-2.461-7.035-.069-1.025-.074-1.635-4.362-1.635a17.974,17.974,0,0,0-2.087.138,39.016,39.016,0,0,1-4.1.266c-.928,0-1.779-.069-1.779-.069-2.242,0-1.51,4.089-4.044,9.5a3.511,3.511,0,0,0-.312,1.508c0,2.821,1.387,2.327,1.843,3.468Z" transform="translate(526.264 751.735)" fill="#225368"/>
      <path id="Path_23509" data-name="Path 23509" d="M30.018,160.739l-6.633-2.584-1.666,6.891a12.516,12.516,0,0,1-6.634.134l-1.7-7.025-6.633,2.584a4.848,4.848,0,0,0-2.918,5.789l7.051,17.878a2.8,2.8,0,0,0,.929,1.466,23.857,23.857,0,0,0,13.72-.656,2.5,2.5,0,0,0,.351-.81l7.051-17.878a4.848,4.848,0,0,0-2.919-5.789" transform="translate(549.13 679.713)" fill="#a5e3ff"/>
      <path id="Path_23510" data-name="Path 23510" d="M83.945,121.163H77.278a18.665,18.665,0,0,0,0-9.584h6.667c-1.09,3.379-.777,5.742,0,9.584" transform="translate(486.858 719.113)" fill="#f7d6b4"/>
      <path id="Path_23511" data-name="Path 23511" d="M77.278,111.579a20.478,20.478,0,0,1,.62,4.329,5.468,5.468,0,0,0,2.759,1.056,5.263,5.263,0,0,0,2.586-.989,13.387,13.387,0,0,1,.7-4.4Z" transform="translate(486.858 719.113)" fill="#f7c999"/>
      <path id="Path_23512" data-name="Path 23512" d="M63.036,19.606c0,5.666-5.6,10.26-8.056,10.26-2.616,0-8.056-4.594-8.056-10.26s3.607-10.26,8.056-10.26,8.056,4.594,8.056,10.26" transform="translate(512.535 805.595)" fill="#f7d6b4"/>
      <path id="Path_23513" data-name="Path 23513" d="M59.928,6.271a17,17,0,0,1,.844,4.494l-.064.584c-.13.016-2.77-1.054-3.772-1.323-1.462-.862-2.66-2.215-3.564-2.215a2.525,2.525,0,0,0-1.664.82,13.114,13.114,0,0,1-6.294,3.2c-.079,0-.163.007-.248.007-.9,0-.66-1.16-.886-2a10.531,10.531,0,0,1-.1-1.407C44.178,3.66,46.616,0,52.261,0a7.856,7.856,0,0,1,6.42,3.466q.1.159.2.32a8.312,8.312,0,0,1,1.043,2.486" transform="translate(514.858 813.501)" fill="#225368"/>
      <path id="Path_23514" data-name="Path 23514" d="M76.278,197.824h6.856l-3.2,21.112Z" transform="translate(487.704 646.157)" fill="#fff"/>
      <path id="Path_23515" data-name="Path 23515" d="M71.532,165.564a12.363,12.363,0,0,0,3.565-.517l1.666-6.891h-10l1.7,7.025a12.429,12.429,0,0,0,3.069.383" transform="translate(495.752 679.713)" fill="#f7d6b4"/>
      <path id="Path_23516" data-name="Path 23516" d="M151.035,72.4c0,1.015-.3,1.86-.663,1.86s-.636-.845-.636-1.86.278-1.9.636-1.9.663.881.663,1.9" transform="translate(425.564 753.86)" fill="#c4ff8a"/>
      <path id="Path_23517" data-name="Path 23517" d="M147.753,70.5h-.477a.637.637,0,0,0-.636.636v2.484a.637.637,0,0,0,.636.636h.477a19.042,19.042,0,0,1,0-3.757" transform="translate(428.184 753.86)" fill="#111212"/>
      <path id="Path_23518" data-name="Path 23518" d="M156.53,78.083c0,.464-.067.84-.149.84s-.149-.376-.149-.84.067-.84.149-.84.149.376.149.84" transform="translate(420.069 748.159)" fill="#111212"/>
      <path id="Path_23519" data-name="Path 23519" d="M157.386,81.221a.157.157,0,0,1-.315,0v-.272a.157.157,0,0,1,.315,0Z" transform="translate(419.359 745.157)" fill="#111212"/>
      <path id="Path_23520" data-name="Path 23520" d="M39.871,72.4c0,1.015.3,1.86.663,1.86s.636-.845.636-1.86-.277-1.9-.636-1.9-.663.881-.663,1.9" transform="translate(518.502 753.86)" fill="#c4ff8a"/>
      <path id="Path_23521" data-name="Path 23521" d="M44.172,70.5h.477a.636.636,0,0,1,.636.636v2.484a.636.636,0,0,1-.636.636h-.477a19.043,19.043,0,0,0,0-3.757" transform="translate(514.863 753.86)" fill="#111212"/>
      <path id="Path_23522" data-name="Path 23522" d="M103.686,121.914l-2.115.159c-.659-.047-.58-1.264.09-1.271l2.093.457a1.358,1.358,0,0,1-.068.656" transform="translate(466.693 711.311)" fill="#111212"/>
      <path id="Path_23523" data-name="Path 23523" d="M115.381,88.837s.165,0,.458-.028a9.907,9.907,0,0,0,1.2-.189c.245-.058.51-.121.783-.212a7.612,7.612,0,0,0,.845-.321,7.054,7.054,0,0,0,.852-.453,5.769,5.769,0,0,0,.79-.6c.128-.107.237-.234.354-.351s.215-.252.313-.383a4.854,4.854,0,0,0,.489-.826l.1-.211c.029-.071.052-.143.079-.214l.076-.21c.022-.07.039-.141.057-.21a6.455,6.455,0,0,0,.163-.791c.02-.25.056-.478.052-.682s.013-.382,0-.528c-.015-.293-.024-.46-.024-.46l.153-.013.025.468c.014.149,0,.331,0,.539s-.032.442-.052.7a6.615,6.615,0,0,1-.166.812c-.02.071-.036.144-.059.216l-.078.216c-.027.073-.051.147-.081.22l-.1.218a5.025,5.025,0,0,1-.5.854c-.1.135-.21.267-.322.4s-.233.252-.364.363a5.922,5.922,0,0,1-.812.62,7.2,7.2,0,0,1-.872.465,7.8,7.8,0,0,1-.863.329c-.279.092-.548.157-.8.217a10.112,10.112,0,0,1-1.221.194c-.3.027-.471.029-.471.029Z" transform="translate(454.626 744.005)" fill="#111212"/>
    </g>
  </g>
</svg>
