<svg xmlns="http://www.w3.org/2000/svg" width="52" height="52.001" viewBox="0 0 52 52.001">
  <g id="Group_9094" data-name="Group 9094" transform="translate(-759 -1679.749)">
    <path id="Path_23789" data-name="Path 23789" d="M149.825,92.31a16.786,16.786,0,1,1-16.786-16.785A16.786,16.786,0,0,1,149.825,92.31" transform="translate(651.639 1613.871)" fill="#c4ff8a"/>
    <path id="Path_23791" data-name="Path 23791" d="M44.925,32.146V25.559H38.338" transform="translate(726.898 1658.234)" fill="none" stroke="#67d0ff" stroke-width="1.5"/>
    <path id="Path_23792" data-name="Path 23792" d="M38.6,73.779A25.256,25.256,0,0,1,18.465,27.955" transform="translate(753.361 1656.25)" fill="none" stroke="#67d0ff" stroke-width="1.5"/>
    <path id="Path_23790" data-name="Path 23790" d="M112.651,7.37a25.257,25.257,0,0,1,20.082,45.868" transform="translate(665.355 1674.109)" fill="none" stroke="#225368" stroke-width="1.5"/>
    <path id="Path_23795" data-name="Path 23795" d="M230.032,242.811V249.4h6.587" transform="translate(568.143 1478.309)" fill="none" stroke="#225368" stroke-width="1.5"/>
    <path id="Union_8" data-name="Union 8" d="M14.437,15.068a6.987,6.987,0,1,0-13.974,0,.232.232,0,1,1-.463,0A7.471,7.471,0,0,1,6.081,7.733a3.981,3.981,0,1,1,2.738,0,7.471,7.471,0,0,1,6.08,7.335.231.231,0,1,1-.462,0ZM3.932,3.988A3.518,3.518,0,1,0,7.45.464,3.525,3.525,0,0,0,3.932,3.988Z" transform="translate(777.009 1698.117)" fill="#baf97b" stroke="#225368" stroke-width="1"/>
  </g>
</svg>
