<svg xmlns="http://www.w3.org/2000/svg" width="64.376" height="50.501" viewBox="0 0 64.376 50.501">
  <g id="Group_9095" data-name="Group 9095" transform="translate(-401.062 -1680.499)">
    <path id="Path_23796" data-name="Path 23796" d="M53.691,2.906H36a3.634,3.634,0,0,0-7.121,0H11.187c.376,1.594-.842-1,0,1.453.626.016.643-.036.7,0H28.878a3.6,3.6,0,0,0,.488,1.207L29.3,44.193c-1.726,0-5.126,1.4-5.126,3.126V50.5H41.43v-3.18A3.126,3.126,0,0,0,38.3,44.193c-.04,0-2.074-.031-2.076-.071L35.514,5.563A3.569,3.569,0,0,0,36,4.359H52.99Zm-19.2,1.453a2.18,2.18,0,0,1-4.11,0,2.181,2.181,0,0,1,0-1.453,2.18,2.18,0,0,1,4.11,0,2.177,2.177,0,0,1,0,1.453" transform="translate(400.562 1680.5)" fill="#225368"/>
    <path id="Path_23797" data-name="Path 23797" d="M36,2.906a3.634,3.634,0,0,0-7.121,0h-18.1c-.062,1.375,4.844,1.406,18.1,1.453a3.6,3.6,0,0,0,.488,1.207L29.3,44.193c-1.726,0-5.126,1.4-5.126,3.126V50.5H41.43v-3.18A3.126,3.126,0,0,0,38.3,44.193c-.04,0-2.074-.031-2.076-.071L35.514,5.563A3.569,3.569,0,0,0,36,4.359ZM34.494,4.359a2.18,2.18,0,0,1-4.11,0,2.181,2.181,0,0,1,0-1.453,2.18,2.18,0,0,1,4.11,0,2.177,2.177,0,0,1,0,1.453" transform="translate(400.562 1680.5)" fill="#225368"/>
    <path id="Path_23798" data-name="Path 23798" d="M64.608,23.691,53.691,2.906c-.452.594-1.052,1.994-.7,1.453l-9.3,19.332-.269.558v.169a1.938,1.938,0,0,0,.141.727c.879,2.208,5.76,3.359,10.589,3.359s9.708-1.151,10.589-3.359a1.942,1.942,0,0,0,.14-.727v-.169Zm-19.308,0L53.753,5.309l9.241,18.382Z" transform="translate(400.562 1680.5)" fill="#97dfff"/>
    <path id="Path_23799" data-name="Path 23799" d="M64.608,23.691,53.691,2.906c-.452.594-1.052,1.994-.7,1.453l-9.3,19.332-.269.558v.169a1.938,1.938,0,0,0,.141.727c.879,2.208,5.76,3.359,10.589,3.359s9.708-1.151,10.589-3.359a1.942,1.942,0,0,0,.14-.727v-.169Zm-19.308,0L53.753,5.309l9.241,18.382Z" transform="translate(357.645 1680.5)" fill="#97dfff"/>
    <path id="Rectangle_435" data-name="Rectangle 435" d="M7,0h5a7,7,0,0,1,7,7V8a0,0,0,0,1,0,0H0A0,0,0,0,1,0,8V7A7,7,0,0,1,7,0Z" transform="translate(424 1723)" fill="#225368"/>
    <circle id="Ellipse_1797" data-name="Ellipse 1797" cx="2.25" cy="2.25" r="2.25" transform="translate(431 1682)" fill="#c4ff8a"/>
  </g>
</svg>
