<svg xmlns="http://www.w3.org/2000/svg" width="52.896" height="50.472" viewBox="0 0 52.896 50.472">
  <g id="Group_9093" data-name="Group 9093" transform="translate(-1466.48 -1680.529)">
    <path id="Path_23781" data-name="Path 23781" d="M79.941,8.715A83.954,83.954,0,0,1,59.742.147a1.061,1.061,0,0,0-1.079,0,81.655,81.655,0,0,1-20.2,8.568,1.062,1.062,0,0,0-.781,1.024V20.586a31.207,31.207,0,0,0,9.477,22.8C51.812,47.948,57.233,50.47,59.2,50.47s7.39-2.522,12.044-7.083a31.207,31.207,0,0,0,9.476-22.8C80.722,9.26,80.4,8.841,79.941,8.715ZM59.2,48.346Z" transform="translate(1428.799 1680.529)" fill="#eaf4fe"/>
    <path id="Path_526" data-name="Path 526" d="M79.941,8.715A83.954,83.954,0,0,1,59.742.147a1.061,1.061,0,0,0-1.079,0,81.655,81.655,0,0,1-20.2,8.568,1.062,1.062,0,0,0-.781,1.024V20.586a31.207,31.207,0,0,0,9.477,22.8C51.812,47.948,57.233,50.47,59.2,50.47s7.39-2.522,12.044-7.083a31.207,31.207,0,0,0,9.476-22.8V9.739A1.061,1.061,0,0,0,79.941,8.715ZM78.6,20.586A29.126,29.126,0,0,1,69.76,41.87c-4.577,4.485-9.47,6.476-10.558,6.476S53.22,46.355,48.644,41.87A29.126,29.126,0,0,1,39.8,20.586V10.545A83.611,83.611,0,0,0,59.2,2.292a86.257,86.257,0,0,0,19.4,8.253Z" transform="translate(1428.799 1680.531)" fill="#225368"/>
    <path id="Path_23765" data-name="Path 23765" d="M142.537,88.666a13.142,13.142,0,1,1-13.142-13.141,13.142,13.142,0,0,1,13.142,13.141" transform="translate(1376.839 1626.938)" fill="#c4ff8a"/>
    <path id="Path_23782" data-name="Path 23782" d="M6274.333,1703.974l3.168,3.168,6.634-6.633" transform="translate(-4773 11.777)" fill="none" stroke="#225368" stroke-linecap="round" stroke-width="1.5"/>
  </g>
</svg>
