<svg xmlns="http://www.w3.org/2000/svg" xmlns:xlink="http://www.w3.org/1999/xlink" width="60" height="34" viewBox="0 0 60 34">
  <defs>
    <clipPath id="clip-path">
      <rect id="Rectangle_434" data-name="Rectangle 434" width="60" height="34" transform="translate(-0.309 -0.034)" fill="#225368"/>
    </clipPath>
  </defs>
  <g id="Group_8767" data-name="Group 8767" transform="translate(0.802 -0.104)">
    <g id="Group_8766" data-name="Group 8766" transform="translate(-0.493 0.138)" clip-path="url(#clip-path)">
      <path id="Path_23783" data-name="Path 23783" d="M62.728,64A14.727,14.727,0,0,0,48,78.728H77.455A14.727,14.727,0,0,0,62.728,64" transform="translate(-32.895 -44.441)" fill="#baf97b"/>
      <path id="Path_23784" data-name="Path 23784" d="M136.964,30.728a7.364,7.364,0,1,0-7.364-7.364,7.364,7.364,0,0,0,7.364,7.364" transform="translate(-89.458 -11.169)" fill="#225368"/>
      <path id="Path_23785" data-name="Path 23785" d="M141.258,68.267a11.726,11.726,0,0,0-5.463,1.344,17.125,17.125,0,0,1,4.972,12.074h12.157a11.772,11.772,0,0,0-11.666-13.418" transform="translate(-93.752 -47.399)" fill="#225368"/>
      <path id="Path_23786" data-name="Path 23786" d="M11.782,68.267A11.772,11.772,0,0,0,.116,81.685H12.273a17.125,17.125,0,0,1,4.972-12.074,11.725,11.725,0,0,0-5.463-1.344" transform="translate(0.377 -47.399)" fill="#225368"/>
      <path id="Path_23787" data-name="Path 23787" d="M68,8.591A8.591,8.591,0,1,0,76.591,0,8.591,8.591,0,0,0,68,8.591" transform="translate(-46.759 -0.078)" fill="#baf97b"/>
      <path id="Path_23788" data-name="Path 23788" d="M21.764,16a7.364,7.364,0,1,0,7.364,7.364A7.364,7.364,0,0,0,21.764,16" transform="translate(-9.604 -11.169)" fill="#225368"/>
    </g>
  </g>
</svg>
